<svg xmlns="http://www.w3.org/2000/svg" viewBox="0 0 64 64" role="img" aria-label="CPU icon">
  <defs>
    <linearGradient id="bg" x1="0" y1="0" x2="1" y2="1">
      <stop offset="0%" stop-color="#0b1220" />
      <stop offset="100%" stop-color="#172036" />
    </linearGradient>
    <linearGradient id="chip" x1="0" y1="0" x2="1" y2="1">
      <stop offset="0%" stop-color="#38bdf8" />
      <stop offset="100%" stop-color="#2563eb" />
    </linearGradient>
  </defs>

  <rect x="2" y="2" width="60" height="60" rx="14" fill="url(#bg)" />

  <rect x="18" y="18" width="28" height="28" rx="6" fill="url(#chip)" />
  <rect x="24" y="24" width="16" height="16" rx="3" fill="#0f172a" />

  <g fill="#93c5fd">
    <rect x="10" y="22" width="6" height="3" rx="1.2" />
    <rect x="10" y="30" width="6" height="3" rx="1.2" />
    <rect x="10" y="38" width="6" height="3" rx="1.2" />

    <rect x="48" y="22" width="6" height="3" rx="1.2" />
    <rect x="48" y="30" width="6" height="3" rx="1.2" />
    <rect x="48" y="38" width="6" height="3" rx="1.2" />

    <rect x="22" y="10" width="3" height="6" rx="1.2" />
    <rect x="30" y="10" width="3" height="6" rx="1.2" />
    <rect x="38" y="10" width="3" height="6" rx="1.2" />

    <rect x="22" y="48" width="3" height="6" rx="1.2" />
    <rect x="30" y="48" width="3" height="6" rx="1.2" />
    <rect x="38" y="48" width="3" height="6" rx="1.2" />
  </g>
</svg>
