<svg width="1848" height="1075" viewBox="0 0 1848 1075" fill="none" xmlns="http://www.w3.org/2000/svg" >

<g id="Frame">
<g id="mips_pipeline" clip-path="url(#clip0_23_245)">
<g id="data_paths">
<path id="w_4_to_adder_pc4" d="M396 469L386 463.226V474.774L396 469ZM364 469V470H387V469V468H364V469Z" fill="var(--dp)" stroke-width="2.5"/>
<path id="w_adder_pc4_to_ifid" d="M496 441L486 435.226V446.774L496 441ZM419 441V442H487V441V440H419V441Z" fill="var(--dp)" stroke-width="2.5"/>
<path id="w_ifid_to_adder_branch_id" d="M787 405L777 399.226V410.774L787 405ZM536 405V406H778V405V404H536V405Z" fill="var(--dp)" stroke-width="2.5"/>
<path id="w_pc_to_imem" d="M352 600L342 594.226V605.774L352 600ZM324 600V601H343V600V599H324V600Z" fill="var(--dp)" stroke-width="2.5"/>
<path id="w_err_addr_to_mux_pcsrc" d="M220 628L210 622.226L210 633.773L220 628ZM151 628L151 629L211 629L211 628L211 627L151 627L151 628Z" fill="var(--dp)" stroke-width="2.5"/>
<path id="w_imem_to_ifid" d="M496 600L486 594.226V605.774L496 600ZM473 600V601H487V600V599H473V600Z" fill="var(--dp)" stroke-width="2.5"/>
<path id="w_mux_pcsrc_to_pc" d="M283 600L273 594.226V605.774L283 600ZM255 600V601H274V600V599H255V600Z" fill="var(--dp)" stroke-width="2.5"/>
<path id="w_pc_to_adder_pc4" d="M333 426H332V426H333ZM396 426L386 420.226V431.774L396 426ZM333 599H334L334 426L333 426H332L332 599H333ZM333 426H334V425H333H332V426H333ZM333 426V427H387V426V425H333V426Z" fill="var(--dp)" stroke-width="2.5"/>
<path id="w_adder_pc4_to_mux_pcsrc" d="M222 570L212 564.227V575.773L222 570ZM449.667 441C449.667 443.946 452.054 446.333 455 446.333C457.946 446.333 460.333 443.946 460.333 441C460.333 438.054 457.946 435.667 455 435.667C452.054 435.667 449.667 438.054 449.667 441ZM179 570V571H180V570V569H179V570ZM180 570V571H213V570V569H180V570ZM180 570H181L181 350L180 350H179L179 570H180ZM179 350V351H180V350V349H179V350ZM455 349H454V350H455H456V349H455ZM455 350H454V441H455H456V350H455ZM180 350V351H455V350V349H180V350Z" fill="var(--dp)" stroke-width="2.5"/>
<path id="w_ifif_to_idex" d="M1007 426L997 420.226V431.774L1007 426ZM747.667 405C747.667 407.946 750.054 410.333 753 410.333C755.946 410.333 758.333 407.946 758.333 405C758.333 402.054 755.946 399.667 753 399.667C750.054 399.667 747.667 402.054 747.667 405ZM752 426V427H753V426V425H752V426ZM753 426V427H998V426V425H753V426ZM753 426H754V405H753H752V426H753Z" fill="var(--dp)" stroke-width="2.5"/>
<path id="w_shiftleft2_id_to_adder_branch_id" d="M787 356L777 350.226V361.774L787 356ZM739 432H740V356H739H738V432H739ZM738 356V357H739V356V355H738V356ZM739 356V357H778V356V355H739V356Z" fill="var(--dp)" stroke-width="2.5"/>
<path id="w_rs2_toregfile" d="M802 500L792 494.226V505.774L802 500ZM562 500V501H793V500V499H562V500Z" fill="var(--dp)" stroke-width="2.5"/>
<path id="w_rt2_to_regfile" d="M802 535L792 529.226V540.774L802 535ZM562 535V536H793V535V534H562V535Z" fill="var(--dp)" stroke-width="2.5"/>
<path id="w_ifid_rt2_to_idex" d="M600.667 535C600.667 537.946 603.054 540.333 606 540.333C608.946 540.333 611.333 537.946 611.333 535C611.333 532.054 608.946 529.667 606 529.667C603.054 529.667 600.667 532.054 600.667 535ZM1007 809L997 803.227V814.773L1007 809ZM606 535L605 535L605 809H606H607L607 535L606 535ZM605 809V810H606V809V808H605V809ZM606 809V810H998V809V808H606V809Z" fill="var(--dp)" stroke-width="2.5"/>
<path id="w_ifit_rs2_to_idex" d="M575.729 500C575.729 502.946 578.117 505.333 581.062 505.333C584.008 505.333 586.396 502.946 586.396 500C586.396 497.054 584.008 494.667 581.062 494.667C578.117 494.667 575.729 497.054 575.729 500ZM1007 786L997 780.227V791.773L1007 786ZM581.062 500L580.062 500L580.062 786H581.062H582.062L582.062 500L581.062 500ZM580 786V787H581.062V786V785H580V786ZM581.062 786V787H998V786V785H581.062V786Z" fill="var(--dp)" stroke-width="2.5"/>
<path id="w_rt_to_idex" d="M1007 833L997 827.227V838.773L1007 833ZM607 185L597 179.226V190.774L607 185ZM561 833V834H998V833V832H561V833ZM561 185V186H598V185V184H561V185ZM562 833H563V185H562H561V833H562Z" fill="var(--dp)" stroke-width="2.5"/>
<path id="w_rd2_to_hdu" d="M1007 861L997 855.227V866.773L1007 861ZM607 185L597 179.226V190.774L607 185ZM561 861V862H998V861V860H561V861ZM561 185V186H598V185V184H561V185ZM562 861H563V185H562H561V861H562Z" fill="var(--dp)" stroke-width="2.5"/>
<path id="w_rt3_to_hdu" d="M621 206L615.226 216H626.774L621 206ZM1055.67 830C1055.67 832.945 1058.05 835.333 1061 835.333C1063.95 835.333 1066.33 832.945 1066.33 830C1066.33 827.055 1063.95 824.667 1061 824.667C1058.05 824.667 1055.67 827.055 1055.67 830ZM621 886H622V885H621H620V886H621ZM621 885H622L622 215H621H620L620 885H621ZM621 885V886H1061V885V884H621V885ZM1061 886H1062V885H1061H1060V886H1061ZM1061 885H1062V830H1061H1060V885H1061Z" fill="var(--dp)" stroke-width="2.5"/>
<path id="w_16bit_imm_to_signext" d="M567.333 710C567.333 707.054 564.946 704.667 562 704.667C559.054 704.667 556.667 707.054 556.667 710C556.667 712.946 559.054 715.333 562 715.333C564.946 715.333 567.333 712.946 567.333 710ZM699 710L699 709L562 709L562 710L562 711L699 711L699 710Z" fill="var(--dp)" stroke-width="2.5"/>
<path id="w_signext_32bit_imm_to_idex" d="M1007 710L997 704.226V715.774L1007 710ZM784 710V711H998V710V709H784V710Z" fill="var(--dp)" stroke-width="2.5"/>
<path id="w_32bit_imm_to_shiftleft2_id" d="M807.667 710C807.667 712.946 810.054 715.333 813 715.333C815.946 715.333 818.333 712.946 818.333 710C818.333 707.054 815.946 704.667 813 704.667C810.054 704.667 807.667 707.054 807.667 710ZM739 493H738V649H739H740V493H739ZM739 649H738L738 650H739H740L740 649H739ZM739 649V650H813V649V648H739V649ZM813 649V650H814V649V648H813V649ZM813 649H812V710H813H814V649H813Z" fill="var(--dp)" stroke-width="2.5"/>
<path id="w_regfile_rs2_to_idex" d="M1007 470L997 464.226V475.774L1007 470ZM913 470V471H998V470V469H913V470Z" fill="var(--dp)" stroke-width="2.5"/>
<path id="w_regfile_rt2_to_idex" d="M1007 606L997 600.226V611.774L1007 606ZM913 606V607H998V606V605H913V606Z" fill="var(--dp)" stroke-width="2.5"/>
<path id="w_regfile_rt2_to_cmp_eq" d="M957 572L951.226 582L962.774 582L957 572ZM957 606L958 606L958 581L957 581L956 581L956 606L957 606Z" fill="var(--dp)" stroke-width="2.5"/>
<path id="w_regfile_rs2_to_cmp_eq" d="M957 508L962.774 498L951.226 498L957 508ZM957 470L956 470L956 499L957 499L958 499L958 470L957 470Z" fill="var(--dp)" stroke-width="2.5"/>
<path id="w_idex_rd_to_mux_regdst" d="M1145 861L1135 855.226V866.774L1145 861ZM1051 861V862H1136V861V860H1051V861Z" fill="var(--dp)" stroke-width="2.5"/>
<path id="w_idex_rt_to_mux_regdst" d="M1145 830L1135 824.226V835.774L1145 830ZM1051 830V831H1136V830V829H1051V830Z" fill="var(--dp)" stroke-width="2.5"/>
<path id="w_idex_rs_to_forwarding" d="M1221 915L1211 909.227V920.773L1221 915ZM1051 781V782H1121V781V780H1051V781ZM1121 781V782H1122V781V780H1121V781ZM1121 916H1122L1122 781L1121 781L1120 781L1120 916H1121ZM1121 781H1122V780H1121H1120V781H1121ZM1122 915V916H1212V915V914H1122V915Z" fill="var(--dp)" stroke-width="2.5"/>
<path id="w_idex_rt_to_forwarding" d="M1224 935.044L1214 929.271V940.818L1224 935.044ZM1051 806.956V807.956H1108.53V806.956V805.956H1051V806.956ZM1108.53 806.956V807.956H1108.69V806.956V805.956H1108.53V806.956ZM1108.53 936H1109.53L1109.53 806.956L1108.53 806.956L1107.53 806.956L1107.53 936H1108.53ZM1108.53 806.956H1109.53V806H1108.53H1107.53V806.956H1108.53ZM1108.69 935.044V936.044H1215V935.044V934.044H1108.69V935.044Z" fill="var(--dp)" stroke-width="2.5"/>
<path id="w_mux_regdst_to_exmem" d="M1371 830L1361 824.226V835.774L1371 830ZM1180 830V831H1362V830V829H1180V830Z" fill="var(--dp)" stroke-width="2.5"/>
<path id="w_exmem_regdst4_memwb" d="M1608 852L1598 846.227L1598 857.774L1608 852ZM1415 852L1415 853L1599 853L1599 852L1599 851L1415 851L1415 852Z" fill="var(--dp)" stroke-width="2.5"/>
<path id="w_memwb_regdst4_to_forwarding" d="M1370 929L1380 934.774V923.226L1370 929ZM1671 929V928H1670V929V930H1671V929ZM1670 929V928H1379V929V930H1670V929ZM1670 929H1671V857H1670H1669V929H1670ZM1652 857V858H1670V857V856H1652V857ZM1670 857V858H1671V857V856H1670V857Z" fill="var(--dp)" stroke-width="2.5"/>
<path id="w_dmem_aluout_to_memwb" d="M1608 635L1598 629.226L1598 640.774L1608 635ZM1580 635L1580 636L1599 636L1599 635L1599 634L1580 634L1580 635Z" fill="var(--dp)" stroke-width="2.5"/>
<path id="w_fwd_b_exmem_to_dmem" d="M1483 699L1473 693.227L1473 704.774L1483 699ZM1415 699L1415 700L1474 700L1474 699L1474 698L1415 698L1415 699Z" fill="var(--dp)" stroke-width="2.5"/>
<path id="w_exmem_alu_out_to_memwb" d="M1451.67 773C1451.67 775.946 1454.05 778.333 1457 778.333C1459.95 778.333 1462.33 775.946 1462.33 773C1462.33 770.054 1459.95 767.667 1457 767.667C1454.05 767.667 1451.67 770.054 1451.67 773ZM1608 773L1598 767.226L1598 778.773L1608 773ZM1457 773L1457 774L1599 774L1599 773L1599 772L1457 772L1457 773Z" fill="var(--dp)" stroke-width="2.5"/>
<path id="w_dmem_readdata_to_mux_memtoreg" d="M1718 562L1708 556.226L1708 567.773L1718 562ZM1652 562L1652 563L1709 563L1709 562L1709 561L1652 561L1652 562Z" fill="var(--dp)" stroke-width="2.5"/>
<path id="w_exmem_aluout_to_mux_memtoreg" d="M1719 620L1709 614.226V625.774L1719 620ZM1670 695V696H1670L1670 695ZM1669 620V621H1670V620V619H1669V620ZM1670 620V621L1710 621V620V619L1670 619V620ZM1670 620L1669 620L1669 695H1670H1671L1671 620L1670 620ZM1652 695V696H1670V695V694H1652V695ZM1670 695L1670 696L1671 696L1671 695L1671 694L1670 694L1670 695Z" fill="var(--dp)" stroke-width="2.5"/>
<path id="w_idex_rs3_to_mux_fwd_a" d="M1145 470L1135 464.227L1135 475.774L1145 470ZM1050 470L1050 471L1136 471L1136 470L1136 469L1050 469L1050 470Z" fill="var(--dp)" stroke-width="2.5"/>
<path id="w_mux_fwd_a_rs_to_alu_a" d="M1290 498L1280 492.227L1280 503.774L1290 498ZM1180 498L1180 499L1281 499L1281 498L1281 497L1180 497L1180 498Z" fill="var(--dp)" stroke-width="2.5"/>
<path id="w_mux_fwd_b_to_mux_alusrc" d="M1231 635L1221 629.226L1221 640.773L1231 635ZM1180 635L1180 636L1222 636L1222 635L1222 634L1180 634L1180 635Z" fill="var(--dp)" stroke-width="2.5"/>
<path id="w_mux_alusrc_to_alu_b" d="M1290 651L1280 645.226L1280 656.774L1290 651ZM1265 651L1265 652L1281 652L1281 651L1281 650L1265 650L1265 651Z" fill="var(--dp)" stroke-width="2.5"/>
<path id="w_mux_fwd_b_to_exmem" d="M1209 699V700H1209L1209 699ZM1371 699L1361 693.226V704.773L1371 699ZM1203.67 635C1203.67 637.946 1206.05 640.333 1209 640.333C1211.95 640.333 1214.33 637.946 1214.33 635C1214.33 632.054 1211.95 629.667 1209 629.667C1206.05 629.667 1203.67 632.054 1203.67 635ZM1208 699V700H1209V699V698H1208V699ZM1209 699L1209 700L1362 700V699V698L1209 698L1209 699ZM1209 699H1210L1210 635L1209 635L1208 635L1208 699H1209Z" fill="var(--dp)" stroke-width="2.5"/>
<path id="w_alu_out_to_exmem" d="M1371 568L1361 562.226L1361 573.774L1371 568ZM1342 568L1342 569L1362 569L1362 568L1362 567L1342 567L1342 568Z" fill="var(--dp)" stroke-width="2.5"/>
<path id="w_idex_rt3_to_mux_fwd_b" d="M1145 606L1135 600.227L1135 611.774L1145 606ZM1051 606L1051 607L1136 607L1136 606L1136 605L1051 605L1051 606Z" fill="var(--dp)" stroke-width="2.5"/>
<path id="w_exmem_alu_out_to_mux_fwd_a" d="M1095 523L1095 522H1095V523ZM1143 523L1133 517.227V528.774L1143 523ZM1451.67 554C1451.67 556.945 1454.05 559.333 1457 559.333C1459.95 559.333 1462.33 556.945 1462.33 554C1462.33 551.054 1459.95 548.667 1457 548.667C1454.05 548.667 1451.67 551.054 1451.67 554ZM1094 523V524H1095V523V522H1094V523ZM1095 523L1095 524L1134 524V523V522L1095 522L1095 523ZM1095 523L1094 523L1094 984H1095H1096L1096 523L1095 523ZM1458 984V983H1457V984V985H1458V984ZM1457 984V983H1095V984V985H1457V984ZM1095 984V983H1094V984V985H1095V984ZM1457 984H1458L1458 554H1457H1456L1456 984H1457Z" fill="var(--dp)" stroke-width="2.5"/>
<path id="w_dst2_reg_to_regfile" d="M802 572L792 566.226V577.774L802 572ZM1370 929L1380 934.773V923.227L1370 929ZM1522 929H1521V1033H1522H1523V929H1522ZM645 572V573H793V572V571H645V572ZM645 1033H646V572H645H644V1033H645ZM645 572H646V571H645H644V572H645ZM646 1032V1033H1521V1032V1031H646V1032ZM1523 929V928H1522V929V930H1523V929ZM1522 929V928H1379V929V930H1522V929Z" fill="var(--dp)" stroke-width="2.5"/>
<path id="w_idex_32bit_imm_to_mux_alusrc" d="M1231 670L1221 664.227V675.774L1231 670ZM1185 670V671L1222 671V670V669L1185 669V670ZM1051 709V710H1185V709V708H1051V709ZM1186 670H1185V710H1186H1187V670H1186Z" fill="var(--dp)" stroke-width="2.5"/>
<path id="w_idex_to_epc" d="M1067 397H1066V397H1067ZM1124 397L1114 391.227V402.774L1124 397ZM1067 397V398L1115 398V397V396L1067 396V397ZM1067 396H1066V397H1067H1068V396H1067ZM1067 397H1066L1066 439H1067H1068L1068 397L1067 397ZM1051 439V440H1067V439V438H1051V439ZM1067 439V440H1068V439V438H1067V439Z" fill="var(--dp)" stroke-width="2.5"/>
<path id="w_exmem_alu_out4_to_dmem" d="M1485 554L1475 548.227L1475 559.774L1485 554ZM1415 554L1415 555L1476 555L1476 554L1476 553L1415 553L1415 554Z" fill="var(--dp)" stroke-width="2.5"/>
<path id="w_exmem_regdst4_to_forwarding" d="M1421.67 852C1421.67 854.946 1424.05 857.333 1427 857.333C1429.95 857.333 1432.33 854.946 1432.33 852C1432.33 849.054 1429.95 846.667 1427 846.667C1424.05 846.667 1421.67 849.054 1421.67 852ZM1364 893L1374 898.774V887.226L1364 893ZM1427 893H1428V852H1427H1426V893H1427ZM1428 893V892H1427V893V894H1428V893ZM1427 893V892H1373V893V894H1427V893Z" fill="var(--dp)" stroke-width="2.5"/>
<path id="w_adder_branch_id_to_mux_pcsrc" d="M170 93V92H169L169 93L170 93ZM220 602L210 596.227V607.773L220 602ZM170 602H171L171 93H170L169 93L169 602H170ZM169 602V603H170V602V601H169V602ZM170 602V603H211V602V601H170V602ZM835 93V92H170V93V94H835V93ZM835 92H834V93H835H836V92H835ZM835 93H834V380H835H836V93H835ZM811 380V381H835V380V379H811V380ZM835 380V381H836V380V379H835V380Z" fill="var(--dp)" stroke-width="2.5"/>
<path id="w_to_control" d="M563 334C562.448 334 562 334.448 562 335C562 335.552 562.448 336 563 336V335V334ZM643 335L633 329.226V340.774L643 335ZM563 335V336H634V335V334H563V335Z" fill="var(--dp)" stroke-width="2.5"/>
<path id="w_wb_value_to_mux_fwd_a" d="M1075 497L1075 496L1074 496L1074 497L1075 497ZM1145 497L1135 491.227V502.774L1145 497ZM1075 1008H1074V1009H1075V1008ZM1777 1008V1009H1778V1008H1777ZM1777 583.83H1778V582.83H1777V583.83ZM1753 583.83L1763 589.604V578.057L1753 583.83ZM1075 497L1075 498L1136 498V497V496L1075 496L1075 497ZM1075 497L1074 497L1074 1008H1075H1076L1076 497L1075 497ZM1075 1008V1009H1777V1008V1007H1075V1008ZM1777 1008H1778V583.83H1777H1776V1008H1777ZM1777 583.83V582.83H1762V583.83V584.83H1777V583.83Z" fill="var(--dp)" stroke-width="2.5"/>
<path id="w_exmem_alu_out4_to_mux_fwd_b" d="M1145 660L1135 654.227V665.774L1145 660ZM1095 984H1094L1094 985H1095V984ZM1451.67 554C1451.67 556.946 1454.05 559.333 1457 559.333C1459.95 559.333 1462.33 556.946 1462.33 554C1462.33 551.054 1459.95 548.667 1457 548.667C1454.05 548.667 1451.67 551.054 1451.67 554ZM1094 660V661H1095V660V659H1094V660ZM1095 660V661H1136V660V659H1095V660ZM1095 660H1094L1094 984H1095H1096L1096 660H1095ZM1458 984V983H1457V984V985H1458V984ZM1457 984V983H1095V984V985H1457V984ZM1457 984H1458L1458 554L1457 554L1456 554L1456 984H1457Z" fill="var(--dp)" stroke-width="2.5"/>
<path id="w_mem_to_regfile" d="M802 613L792 607.226V618.773L802 613ZM1777 1008V1009H1778V1008H1777ZM1753 584L1763 589.774V578.226L1753 584ZM680 613V614H681V613V612H680V613ZM681 613L681 614L793 614V613V612L681 612L681 613ZM681 613H680L680 1008H681H682L682 613H681ZM681 1008H680L680 1009H681H682V1008H681ZM1777 1008V1007H681V1008V1009H1777V1008ZM681 1008V1007H680V1008V1009H681V1008ZM1777 1008H1778V584H1777H1776V1008H1777ZM1777 584H1778V583H1777H1776V584H1777ZM1762 584V585L1777 585V584V583L1762 583V584ZM1777 584V585L1778 585V584V583L1777 583V584Z" fill="var(--dp)" stroke-width="2.5"/>
<path id="w_mux_memtoreg_to_mux_fwd_b" d="M1075 633V632H1074V633H1075ZM1145 633L1135 627.227V638.774L1145 633ZM1753 584L1763 589.774V578.227L1753 584ZM1075 633V634H1136V633V632H1075V633ZM1075 633H1074V1008H1075H1076V633H1075ZM1075 1008L1074 1008L1074 1009L1075 1009L1076 1009L1076 1008L1075 1008ZM1778 1008V1007H1777V1008V1009H1778V1008ZM1777 1008V1007H1075V1008V1009H1777V1008ZM1777 1009H1778V1008H1777H1776V1009H1777ZM1777 1008H1778V584H1777H1776V1008H1777ZM1777 584H1778V583H1777H1776V584H1777ZM1762 584V585L1777 585V584V583L1762 583V584Z" fill="var(--dp)" stroke-width="2.5"/>
</g>
<g id="control_paths">
<path id="ctrl_pc_write" d="M304 156H303V156H304ZM304 569L309.774 559H298.227L304 569ZM304 155H303V156H304H305V155H304ZM304 156H303L303 560H304H305L305 156L304 156ZM304 156V157H609V156V155H304V156Z" fill="var(--ctrl)" stroke-width="2.5"/>
<path id="ctrl_ifid_write" d="M517 166.512H516V166.512H517ZM517 378L522.774 368H511.227L517 378ZM517 166H516V166.512H517H518V166H517ZM517 166.512H516L516 369H517H518L518 166.512H517ZM517 166.512V167.512H605V166.512V165.512H517V166.512Z" fill="var(--ctrl)" stroke-width="2.5"/>
<path id="ctrl_pcsrc" d="M237 558L237 539" stroke="var(--ctrl)" stroke-width="2.5"/>
<path id="ctrl_regdst" d="M1162 797V779" stroke="var(--ctrl)" stroke-width="2.5"/>
<path id="ctrl_mem_write" d="M1532 542L1532 518" stroke="var(--ctrl)" stroke-width="2.5"/>
<path id="ctrl_mem_read" d="M1532 734L1532 712" stroke="var(--ctrl)" stroke-width="2.5"/>
<path id="ctrl_fwd_b" d="M1188 720H1189V719H1188V720ZM1162 720L1162 721H1162L1162 720ZM1162 678L1156.23 688H1167.77L1162 678ZM1225 900V899H1188V900V901H1225V900ZM1188 900V899H1187V900V901H1188V900ZM1188 720H1187V900H1188H1189V720H1188ZM1188 900H1187V900.5H1188H1189V900H1188ZM1188 720V719L1162 719L1162 720L1162 721L1188 721V720ZM1162 720L1162 719L1161 719L1161 720L1161 721L1162 721L1162 720ZM1162 687H1161L1161 720H1162H1163L1163 687H1162Z" fill="var(--ctrl)" stroke-width="2.5"/>
<path id="ctrl_fwd_a" d="M1162 542L1156.23 552H1167.77L1162 542ZM1162 566H1163L1163 551H1162H1161L1161 566H1162ZM1161 566V567H1162V566V565H1161V566ZM1162 566L1162 567L1198 567V566V565L1162 565L1162 566ZM1198 885V886H1235V885V884H1198V885ZM1198 886H1199V885H1198H1197V886H1198ZM1198 885H1199V566H1198H1197V885H1198ZM1198 566L1199 566L1199 565L1198 565L1197 565L1197 566L1198 566Z" fill="var(--ctrl)" stroke-width="2.5"/>
<path id="ctrl_memtoreg" d="M1736 542L1736 518" stroke="var(--ctrl)" stroke-width="2.5"/>
<path id="ctrl_if_flush" d="M496 850L486 844.227V855.773L496 850ZM191 850H192V108H191H190V850H191ZM191 108L192 108L192 107L191 107L190 107L190 108L191 108ZM792 108V107H791V108V109H792V108ZM791 108V107H191V108V109H791V108ZM791 108H790V283H791H792V108H791ZM791 283H790V284H791H792V283H791ZM719 283V284H791V283V282H719V283ZM190 850V851H191V850V849H190V850ZM191 850V851H487V850V849H191V850Z" fill="var(--ctrl)" stroke-width="2.5"/>
<path id="ctrl_alusrc" d="M1248 599V575" stroke="var(--ctrl)" stroke-width="2.5"/>
<path id="ctrl_ex_flush_to_mux_m_flush" d="M1276 311L1281.77 301H1270.23L1276 311ZM728 301V302H802V301V300H728V301ZM802 42H801V43H802H803V42H802ZM802 43H801V301H802H803V43H802ZM802 301H801L801 302H802H803L803 301H802ZM802 43V44H1222V43V42H802V43ZM1222 43V44H1223V43V42H1222V43ZM1222 72H1223V71H1222H1221V72H1222ZM1222 71H1223V43H1222H1221V71H1222ZM1222 71V72H1276V71V70H1222V71ZM1276 302H1277V71H1276H1275V302H1276ZM1276 71H1277V70H1276H1275V71H1276Z" fill="var(--ctrl)" stroke-width="2.5"/>
<path id="ctrl_ex_flush_to_mux_wb_flush" d="M1222 216L1227.77 206H1216.23L1222 216ZM728 301V302H802V301V300H728V301ZM802 42H801V43H802H803V42H802ZM802 43H801V301H802H803V43H802ZM802 301H801L801 302H802H803L803 301H802ZM802 43V44H1222V43V42H802V43ZM1222 43V44H1223V43V42H1222V43ZM1222 207H1223V43H1222H1221V207H1222Z" fill="var(--ctrl)" stroke-width="2.5"/>
<path id="ctrl_id_flush" d="M818 127H817V127H818ZM935 200L940.773 190H929.227L935 200ZM732 318V319H818V318V317H732V318ZM818 318V319H819V318V317H818V318ZM818 126H817V127H818H819V126H818ZM818 127H817L817 318H818H819L819 127L818 127ZM818 318H817V319H818H819V318H818ZM818 127V128H935V127V126H818V127ZM935 127V128H936V127V126H935V127ZM935 191H936V127H935H934V191H935Z" fill="var(--ctrl)" stroke-width="2.5"/>
<path id="ctrl_hdu_to_or_flush" d="M917 198L922.773 188H911.227L917 198ZM754 172V173H916V172V171H754V172ZM917 189H918V171H917H916V189H917Z" fill="var(--ctrl)" stroke-width="2.5"/>
<path id="ctrl_to_mux_control_flush" d="M913 335L903 329.226V340.774L913 335ZM734 335V336H904V335V334H734V335Z" fill="var(--ctrl)" stroke-width="2.5"/>
<path id="ctrl_wb_flush" d="M1129 242V241V241V242ZM1204 242L1194 236.227V247.774L1204 242ZM1128 242V243H1129V242V241H1128V242ZM1129 242V243L1195 243V242V241L1129 241V242ZM1129 242H1128V291H1129H1130V242H1129ZM1129 291H1128V292H1129H1130V291H1129ZM1050 291L1050 292L1129 292V291V290L1050 290L1050 291Z" fill="var(--ctrl)" stroke-width="2.5"/>
<path id="ctrl_0_to_mux_control_flush" d="M913 377L903 371.226L903 382.774L913 377ZM878 377L878 378L904 378L904 377L904 376L878 376L878 377Z" fill="var(--ctrl)" stroke-width="2.5"/>
<path id="ctrl_mux_control_flush_to_m" d="M1007 336L997 330.227L997 341.774L1007 336ZM948 336L948 337L998 337L998 336L998 335L948 335L948 336Z" fill="var(--ctrl)" stroke-width="2.5"/>
<path id="ctrl_mux_control_flush_to_wb" d="M1007 290L997 284.226V295.774L1007 290ZM948 336V337H973V336V335H948V336ZM973 336L973 337L974 337L974 336L974 335L973 335L973 336ZM973 289H972V290H973H974V289H973ZM973 290H972L972 336H973H974L974 290L973 290ZM972 290V291H973V290V289H972V290ZM973 290V291H998V290V289H973V290Z" fill="var(--ctrl)" stroke-width="2.5"/>
<path id="ctrl_mux_control_flush_to_ex" d="M1007 388.851L997 394.625V383.078L1007 388.851ZM948 336V335H973V336V337H948V336ZM973 336L973 335L974 335L974 336L974 337L973 337L973 336ZM973 390H972V388.851H973H974V390H973ZM973 388.851H972L972 336H973H974L974 388.851H973ZM972 388.851V387.851H973V388.851V389.851H972V388.851ZM973 388.851V387.851H998V388.851V389.851H973V388.851Z" fill="var(--ctrl)" stroke-width="2.5"/>
<path id="ctrl_0_to_mux_m_flush" d="M1260 373L1250 367.226L1250 378.774L1260 373ZM1235 373L1235 374L1251 374L1251 373L1251 372L1235 372L1235 373Z" fill="var(--ctrl)" stroke-width="2.5"/>
<path id="ctrl_0_to_mux_wb_flush" d="M1204 284L1194 278.226L1194 289.774L1204 284ZM1179 284L1179 285L1195 285L1195 284L1195 283L1179 283L1179 284Z" fill="var(--ctrl)" stroke-width="2.5"/>
<path id="ctrl_m_flush" d="M1260 336L1250 330.226V341.774L1260 336ZM1051 336V337H1251V336V335H1051V336Z" fill="var(--ctrl)" stroke-width="2.5"/>
<path id="ctrl_m_flush_to_hdu" d="M1099 336V337H1100V336H1099ZM1099 152H1100V151L1099 151V152ZM750 152L760 157.774L760 146.226L750 152ZM1051 336V337H1099V336V335H1051V336ZM1099 152H1098V336H1099H1100V152H1099ZM1099 152V151L759 151V152V153L1099 153V152Z" fill="var(--ctrl)" stroke-width="2.5"/>
<path id="ctrl_mux_wb_flush_to_exmem_wb" d="M1371 339.037L1361 333.263V344.81L1371 339.037ZM1239 261V262H1317V261V260H1239V261ZM1317 261V262H1318V261V260H1317V261ZM1317 340H1318V339.037H1317H1316V340H1317ZM1317 339.037H1318V261H1317H1316V339.037H1317ZM1316 339.037V340.037H1317V339.037V338.037H1316V339.037ZM1317 339.037V340.037L1362 340.037V339.037V338.037L1317 338.037V339.037Z" fill="var(--ctrl)" stroke-width="2.5"/>
<path id="ctrl_exmem_wb_to_memwb_wb" d="M1530.51 340H1531.51V339H1530.51V340ZM1608 389.39L1598 383.617V395.164L1608 389.39ZM1415 340V341H1530.51V340V339H1415V340ZM1530.51 390H1531.51V389.39H1530.51H1529.51V390H1530.51ZM1530.51 389.39H1531.51V340H1530.51H1529.51V389.39H1530.51ZM1529.5 389.39V390.39H1530.51V389.39V388.39H1529.5V389.39ZM1530.51 389.39V390.39H1599V389.39V388.39H1530.51V389.39Z" fill="var(--ctrl)" stroke-width="2.5"/>
<path id="ctrl_exmem_wb_to_forwarding" d="M1437.74 340H1438.74V339H1437.74V340ZM1437.74 912V913H1438.74V912H1437.74ZM1371 912L1381 917.773V906.227L1371 912ZM1415 340V341H1437.74V340V339H1415V340ZM1437.74 912H1438.74V340H1437.74H1436.74V912H1437.74ZM1437.74 912V911H1380V912V913H1437.74V912Z" fill="var(--ctrl)" stroke-width="2.5"/>
<path id="ctrl_mux_m_flush_to_exmem_m" d="M1304 335H1305V334H1304V335ZM1371 388.341L1361 382.568V394.115L1371 388.341ZM1295 335V336H1304V335V334H1295V335ZM1304 388.341H1305V335H1304H1303V388.341H1304ZM1303 388.341V389.341H1304V388.341V387.341H1303V388.341ZM1304 388.341V389.341H1362V388.341V387.341H1304V388.341Z" fill="var(--ctrl)" stroke-width="2.5"/>
<path id="ctrl_or_flush_to_mux_control_flush" d="M928 311L933.774 301L922.226 301L928 311ZM928 256L927 256L927 302L928 302L929 302L929 256L928 256Z" fill="var(--ctrl)" stroke-width="2.5"/>
<path id="ctrl_memwb_reg_write_to_forwarding" d="M847 92V91H846V92L847 92ZM1687 946V947H1688V946H1687ZM1362 946L1372 951.773V940.227L1362 946ZM847 451H848L848 92L847 92L846 92L846 451H847ZM1688 92V91H1687V92V93H1688V92ZM1687 92V91H847V92V93H1687V92ZM1687 92H1686V946H1687H1688V92H1687ZM1371 946V947H1687V946V945H1371V946Z" fill="var(--ctrl)" stroke-width="2.5"/>
<path id="ctrl_memwb_wb_to_forwarding" d="M1686.73 946V947H1687.73V946H1686.73ZM1362.5 946L1372.5 951.773V940.227L1362.5 946ZM1687 389V388H1686.73V389V390H1687V389ZM1686.73 389V388H1651V389V390H1686.73V389ZM1686.73 389H1685.73V946H1686.73H1687.73V389H1686.73ZM1371.5 946V947H1686.73V946V945H1371.5V946Z" fill="var(--ctrl)" stroke-width="2.5"/>
</g>
<g id="components">
<g id="c_pc">
<rect id="pc_body" x="284" y="570" width="39" height="71" rx="1" fill="var(--compBg)" stroke="var(--compStroke)" stroke-width="2"/>
<g id="pc_label">
<text fill="var(--dp)" style="white-space: pre" xml:space="preserve" font-family="Inter, Segoe UI, Arial, sans-serif" font-size="20" letter-spacing="0em"><tspan x="302.172" y="615.273">C</tspan></text>
<text fill="var(--dp)" style="white-space: pre" xml:space="preserve" font-family="Inter, Segoe UI, Arial, sans-serif" font-size="20" letter-spacing="-0.04em"><tspan x="290.277" y="615.273">P</tspan></text>
</g>
</g>
<g id="c_imem">
<rect id="imem_body" x="353" y="506" width="119" height="205" rx="1" fill="var(--compBg)" stroke="var(--compStroke)" stroke-width="2"/>
<text id="imem_label" fill="var(--dp)" style="white-space: pre" xml:space="preserve" font-family="Inter, Segoe UI, Arial, sans-serif" font-size="20" letter-spacing="-0.04em"><tspan x="366.607" y="604.273">Instruction </tspan><tspan x="375.672" y="628.273">Memory</tspan></text>
</g>
<g id="c_adder_pc4">
<g id="adder_pc4_body">
<mask id="path-93-inside-1_23_245" fill="white">
<path d="M420 429.493V454.466L396 481V446.699L401.454 441.979L396 437.259V404L420 429.493Z"/>
</mask>
<path d="M420 429.493V454.466L396 481V446.699L401.454 441.979L396 437.259V404L420 429.493Z" fill="var(--compBg)" stroke="var(--compStroke)" stroke-width="4" mask="url(#path-93-inside-1_23_245)"/>
</g>
<text id="adder_pc4_label" fill="var(--dp)" style="white-space: pre" xml:space="preserve" font-family="Inter, Segoe UI, Arial, sans-serif" font-size="20" letter-spacing="0em"><tspan x="405.408" y="448.273">+</tspan></text>
</g>
<g id="c_mux_pcsrc">
<g id="mux_pcsrc_body">
<mask id="path-95-inside-2_23_245" fill="white">
<path d="M220 575.5C220 565.835 227.835 558 237.5 558C247.165 558 255 565.835 255 575.5V631.5C255 641.165 247.165 649 237.5 649C227.835 649 220 641.165 220 631.5V575.5Z"/>
</mask>
<path d="M220 575.5C220 565.835 227.835 558 237.5 558C247.165 558 255 565.835 255 575.5V631.5C255 641.165 247.165 649 237.5 649C227.835 649 220 641.165 220 631.5V575.5Z" fill="var(--compBg)" stroke="var(--compStroke)" stroke-width="4" mask="url(#path-95-inside-2_23_245)"/>
</g>
<text id="mux_pcsrc_label" fill="var(--dp)" style="white-space: pre" xml:space="preserve" font-family="Inter, Segoe UI, Arial, sans-serif" font-size="20" letter-spacing="0.11em"><tspan x="231.25" y="588.273">0&#10;</tspan><tspan x="232.852" y="612.273">1&#10;</tspan><tspan x="231.445" y="636.273">2</tspan></text>
</g>
<g id="c_signext">
<path id="signext_body" d="M741.5 661C764.274 661 783 682.779 783 710C783 737.221 764.274 759 741.5 759C718.726 759 700 737.221 700 710C700 682.779 718.726 661 741.5 661Z" fill="var(--compBg)" stroke="var(--compStroke)" stroke-width="2"/>
<text id="signext_label" fill="var(--dp)" style="white-space: pre" xml:space="preserve" font-family="Inter, Segoe UI, Arial, sans-serif" font-size="20" letter-spacing="-0.04em"><tspan x="717.307" y="705.273">Sign-&#x2028;</tspan><tspan x="710.168" y="729.273">Extend</tspan></text>
</g>
<g id="c_shiftleft2_id">
<path id="shiftleft2_id_body" d="M734.5 433C748.014 433 760.202 436.377 768.978 441.784C777.769 447.201 783 454.554 783 462.5C783 470.446 777.769 477.799 768.978 483.216C760.202 488.623 748.014 492 734.5 492C720.986 492 708.798 488.623 700.022 483.216C691.231 477.799 686 470.446 686 462.5C686 454.554 691.231 447.201 700.022 441.784C708.798 436.377 720.986 433 734.5 433Z" fill="var(--compBg)" stroke="var(--compStroke)" stroke-width="2"/>
<text id="shiftleft2_id_label" fill="var(--dp)" style="white-space: pre" xml:space="preserve" font-family="Inter, Segoe UI, Arial, sans-serif" font-size="20" letter-spacing="-0.04em"><tspan x="711.293" y="457.273">Shift &#x2028;</tspan><tspan x="708.451" y="481.273">Left 2</tspan></text>
</g>
<g id="c_regfile">
<rect id="regfile_body" x="803" y="452" width="109" height="189" rx="1" fill="var(--compBg)" stroke="var(--compStroke)" stroke-width="2"/>
<text id="regfile_label" fill="var(--dp)" style="white-space: pre" xml:space="preserve" font-family="Inter, Segoe UI, Arial, sans-serif" font-size="20" letter-spacing="-0.04em"><tspan x="816.011" y="554.273">Registers</tspan></text>
</g>
<g id="c_control">
<path id="control_body" d="M688.5 266C700.628 266 711.728 273.347 719.842 285.473C727.951 297.592 733 314.393 733 333C733 351.607 727.951 368.408 719.842 380.527C711.728 392.653 700.628 400 688.5 400C676.372 400 665.272 392.653 657.158 380.527C649.049 368.408 644 351.607 644 333C644 314.393 649.049 297.592 657.158 285.473C665.272 273.347 676.372 266 688.5 266Z" fill="var(--compBg)" stroke="var(--ctrl)" stroke-width="2"/>
<text id="control_label" fill="var(--ctrl)" style="white-space: pre" xml:space="preserve" font-family="Inter, Segoe UI, Arial, sans-serif" font-size="20" letter-spacing="0em"><tspan x="653.381" y="340.273">Control</tspan></text>
</g>
<g id="c_adder_branch_id">
<g id="adder_branch_id_body">
<mask id="path-105-inside-3_23_245" fill="white">
<path d="M811 367.162V391.811L787 418V384.044L791.363 379.486L787 374.928V342L811 367.162Z"/>
</mask>
<path d="M811 367.162V391.811L787 418V384.044L791.363 379.486L787 374.928V342L811 367.162Z" fill="var(--compBg)" stroke="var(--compStroke)" stroke-width="4" mask="url(#path-105-inside-3_23_245)"/>
</g>
<text id="adder_branch_id_label" fill="var(--dp)" style="white-space: pre" xml:space="preserve" font-family="Inter, Segoe UI, Arial, sans-serif" font-size="20" letter-spacing="0em"><tspan x="795.408" y="385.273">+</tspan></text>
</g>
<g id="c_hdu">
<rect id="hdu_body" x="606" y="129" width="147" height="83" rx="40" fill="var(--compBg)" stroke="var(--ctrl)" stroke-width="2"/>
<text id="hdu_label" fill="var(--ctrl)" style="white-space: pre" xml:space="preserve" font-family="Inter, Segoe UI, Arial, sans-serif" font-size="20" font-weight="bold" letter-spacing="0em"><tspan x="642.029" y="153.273">Hazard&#x2028;</tspan><tspan x="629.109" y="177.273">Detection&#x2028;</tspan><tspan x="656.873" y="201.273">Unit</tspan></text>
</g>
<g id="c_cmp_eq">
<path id="cmp_eq_body" d="M956 509C962.242 509 967.97 512.371 972.171 517.973C976.372 523.574 979 531.359 979 540C979 548.641 976.372 556.426 972.171 562.027C967.97 567.629 962.242 571 956 571C949.758 571 944.03 567.629 939.829 562.027C935.628 556.426 933 548.641 933 540C933 531.359 935.628 523.574 939.829 517.973C944.03 512.371 949.758 509 956 509Z" fill="var(--compBg)" stroke="var(--compStroke)" stroke-width="2"/>
<text id="cmp_eq_label" fill="var(--dp)" style="white-space: pre" xml:space="preserve" font-family="Inter, Segoe UI, Arial, sans-serif" font-size="20" letter-spacing="0em"><tspan x="949.408" y="547.273">=</tspan></text>
</g>
<g id="c_or_flush">
<path id="or_flush_body" d="M951.5 195.686C951.5 227 953.5 237 928 255.5C902.5 236.5 905.735 231 905.735 195.686C924 204 935 204 951.5 195.686Z" fill="var(--compBg)" stroke="var(--ctrl)" stroke-width="2"/>
</g>
<g id="c_mux_control_flush">
<g id="mux_control_flush_body">
<mask id="path-112-inside-4_23_245" fill="white">
<path d="M913 328.5C913 318.835 920.835 311 930.5 311C940.165 311 948 318.835 948 328.5V384.5C948 394.165 940.165 402 930.5 402C920.835 402 913 394.165 913 384.5V328.5Z"/>
</mask>
<path d="M913 328.5C913 318.835 920.835 311 930.5 311C940.165 311 948 318.835 948 328.5V384.5C948 394.165 940.165 402 930.5 402C920.835 402 913 394.165 913 384.5V328.5Z" fill="var(--compBg)" stroke="var(--compStroke)" stroke-width="4" mask="url(#path-112-inside-4_23_245)"/>
</g>
<g id="mux_control_flush_label">
<text fill="var(--dp)" style="white-space: pre" xml:space="preserve" font-family="Inter, Segoe UI, Arial, sans-serif" font-size="20" letter-spacing="0.25em"><tspan x="923.75" y="344.273">0&#10;</tspan><tspan x="925.352" y="385.273">1</tspan></text>
<text fill="var(--dp)" style="white-space: pre" xml:space="preserve" font-family="Inter, Segoe UI, Arial, sans-serif" font-size="14" letter-spacing="0.25em"><tspan x="928.031" y="361.273"> &#10;</tspan></text>
</g>
</g>
<g id="c_idex">
<g id="control_visual">
<g id="r_wb">
<g id="r_ex_body">
<mask id="path-114-inside-5_23_245" fill="white">
<path d="M1007 366H1051V415H1007V366Z"/>
<path d="M1007 366H1051V415H1007V366Z"/>
</mask>
<path d="M1007 366H1051V415H1007V366Z" fill="var(--compBg)"/>
<path d="M1007 366H1051V415H1007V366Z" fill="var(--compBg)"/>
<path d="M1007 366H1051V415H1007V366Z" stroke="var(--ctrl)" stroke-width="4" mask="url(#path-114-inside-5_23_245)"/>
<path d="M1007 366H1051V415H1007V366Z" stroke="var(--ctrl)" stroke-width="4" mask="url(#path-114-inside-5_23_245)"/>
</g>
<text id="r_ex_label" fill="var(--ctrl)" style="white-space: pre" xml:space="preserve" font-family="Inter, Segoe UI, Arial, sans-serif" font-size="24" letter-spacing="-0.04em"><tspan x="1015.11" y="399.227">EX</tspan></text>
</g>
<g id="r_m">
<g id="r_m_body">
<mask id="path-116-inside-6_23_245" fill="white">
<path d="M1007 316H1051V366H1007V316Z"/>
<path d="M1007 316H1051V366H1007V316Z"/>
</mask>
<path d="M1007 316H1051V366H1007V316Z" fill="var(--compBg)"/>
<path d="M1007 316H1051V366H1007V316Z" fill="var(--compBg)"/>
<path d="M1007 316H1051V366H1007V316Z" stroke="var(--ctrl)" stroke-width="4" mask="url(#path-116-inside-6_23_245)"/>
<path d="M1007 316H1051V366H1007V316Z" stroke="var(--ctrl)" stroke-width="4" mask="url(#path-116-inside-6_23_245)"/>
</g>
<text id="r_m_label" fill="var(--ctrl)" style="white-space: pre" xml:space="preserve" font-family="Inter, Segoe UI, Arial, sans-serif" font-size="24" letter-spacing="-0.04em"><tspan x="1018.32" y="350.227">M</tspan></text>
</g>
<g id="r_wb_2">
<g id="r_wb_body">
<mask id="path-118-inside-7_23_245" fill="white">
<path d="M1007 269H1051V316H1007V269Z"/>
<path d="M1007 269H1051V316H1007V269Z"/>
</mask>
<path d="M1007 269H1051V316H1007V269Z" fill="var(--compBg)"/>
<path d="M1007 269H1051V316H1007V269Z" fill="var(--compBg)"/>
<path d="M1007 269H1051V316H1007V269Z" stroke="var(--ctrl)" stroke-width="4" mask="url(#path-118-inside-7_23_245)"/>
<path d="M1007 269H1051V316H1007V269Z" stroke="var(--ctrl)" stroke-width="4" mask="url(#path-118-inside-7_23_245)"/>
</g>
<text id="r_wb_label" fill="var(--ctrl)" style="white-space: pre" xml:space="preserve" font-family="Inter, Segoe UI, Arial, sans-serif" font-size="24" letter-spacing="-0.04em"><tspan x="1010.28" y="301.227">WB</tspan></text>
</g>
</g>
<text id="idex_label" fill="var(--dp)" style="white-space: pre" xml:space="preserve" font-family="Inter, Segoe UI, Arial, sans-serif" font-size="24" letter-spacing="-0.04em"><tspan x="1000.45" y="255.227">ID/EX</tspan></text>
<g id="idex_body">
<mask id="path-121-inside-8_23_245" fill="white">
<path d="M1007 415H1051V874H1007V415Z"/>
<path d="M1007 415H1051V874H1007V415Z"/>
</mask>
<path d="M1007 415H1051V874H1007V415Z" fill="var(--compBg)"/>
<path d="M1007 415H1051V874H1007V415Z" fill="var(--compBg)"/>
<path d="M1007 415H1051V874H1007V415Z" stroke="var(--compStroke)" stroke-width="4" mask="url(#path-121-inside-8_23_245)"/>
<path d="M1007 415H1051V874H1007V415Z" stroke="var(--compStroke)" stroke-width="4" mask="url(#path-121-inside-8_23_245)"/>
</g>
</g>
<g id="c_mux_regdst">
<g id="mux_regdst_body">
<mask id="path-122-inside-9_23_245" fill="white">
<path d="M1145 814.5C1145 804.835 1152.84 797 1162.5 797C1172.16 797 1180 804.835 1180 814.5V870.5C1180 880.165 1172.16 888 1162.5 888C1152.84 888 1145 880.165 1145 870.5V814.5Z"/>
</mask>
<path d="M1145 814.5C1145 804.835 1152.84 797 1162.5 797C1172.16 797 1180 804.835 1180 814.5V870.5C1180 880.165 1172.16 888 1162.5 888C1152.84 888 1145 880.165 1145 870.5V814.5Z" fill="var(--compBg)" stroke="var(--compStroke)" stroke-width="4" mask="url(#path-122-inside-9_23_245)"/>
</g>
<g id="mux_regdst_label">
<text fill="var(--dp)" style="white-space: pre" xml:space="preserve" font-family="Inter, Segoe UI, Arial, sans-serif" font-size="20" letter-spacing="0.25em"><tspan x="1155.75" y="830.273">0&#10;</tspan><tspan x="1157.35" y="871.273">1</tspan></text>
<text fill="var(--dp)" style="white-space: pre" xml:space="preserve" font-family="Inter, Segoe UI, Arial, sans-serif" font-size="14" letter-spacing="0.25em"><tspan x="1160.03" y="847.273"> &#10;</tspan></text>
</g>
</g>
<g id="c_mux_fwd_b">
<g id="mux_fwd_b_body">
<mask id="path-124-inside-10_23_245" fill="white">
<path d="M1145 604.5C1145 594.835 1152.84 587 1162.5 587C1172.16 587 1180 594.835 1180 604.5V660.5C1180 670.165 1172.16 678 1162.5 678C1152.84 678 1145 670.165 1145 660.5V604.5Z"/>
</mask>
<path d="M1145 604.5C1145 594.835 1152.84 587 1162.5 587C1172.16 587 1180 594.835 1180 604.5V660.5C1180 670.165 1172.16 678 1162.5 678C1152.84 678 1145 670.165 1145 660.5V604.5Z" fill="var(--compBg)" stroke="var(--compStroke)" stroke-width="4" mask="url(#path-124-inside-10_23_245)"/>
</g>
<text id="mux_fwd_b_label" fill="var(--dp)" style="white-space: pre" xml:space="preserve" font-family="Inter, Segoe UI, Arial, sans-serif" font-size="20" letter-spacing="0.11em"><tspan x="1156.25" y="617.273">0&#10;</tspan><tspan x="1157.85" y="641.273">1&#10;</tspan><tspan x="1156.45" y="665.273">2</tspan></text>
</g>
<g id="c_mux_fwd_a">
<g id="mux_fwd_a_body">
<mask id="path-126-inside-11_23_245" fill="white">
<path d="M1145 468.5C1145 458.835 1152.84 451 1162.5 451C1172.16 451 1180 458.835 1180 468.5V524.5C1180 534.165 1172.16 542 1162.5 542C1152.84 542 1145 534.165 1145 524.5V468.5Z"/>
</mask>
<path d="M1145 468.5C1145 458.835 1152.84 451 1162.5 451C1172.16 451 1180 458.835 1180 468.5V524.5C1180 534.165 1172.16 542 1162.5 542C1152.84 542 1145 534.165 1145 524.5V468.5Z" fill="var(--compBg)" stroke="var(--compStroke)" stroke-width="4" mask="url(#path-126-inside-11_23_245)"/>
</g>
<text id="mux_fwd_a_label" fill="var(--dp)" style="white-space: pre" xml:space="preserve" font-family="Inter, Segoe UI, Arial, sans-serif" font-size="20" letter-spacing="0.11em"><tspan x="1156.25" y="481.273">0&#10;</tspan><tspan x="1157.85" y="505.273">1&#10;</tspan><tspan x="1156.45" y="529.273">2</tspan></text>
</g>
<g id="c_mux_alusrc">
<g id="mux_alusrc_body">
<mask id="path-128-inside-12_23_245" fill="white">
<path d="M1231 616.5C1231 606.835 1238.84 599 1248.5 599C1258.16 599 1266 606.835 1266 616.5V672.5C1266 682.165 1258.16 690 1248.5 690C1238.84 690 1231 682.165 1231 672.5V616.5Z"/>
</mask>
<path d="M1231 616.5C1231 606.835 1238.84 599 1248.5 599C1258.16 599 1266 606.835 1266 616.5V672.5C1266 682.165 1258.16 690 1248.5 690C1238.84 690 1231 682.165 1231 672.5V616.5Z" fill="var(--compBg)" stroke="var(--compStroke)" stroke-width="4" mask="url(#path-128-inside-12_23_245)"/>
</g>
<g id="mux_alusrc_label">
<text fill="var(--dp)" style="white-space: pre" xml:space="preserve" font-family="Inter, Segoe UI, Arial, sans-serif" font-size="20" letter-spacing="0.25em"><tspan x="1241.75" y="632.273">0&#10;</tspan><tspan x="1243.35" y="673.273">1</tspan></text>
<text fill="var(--dp)" style="white-space: pre" xml:space="preserve" font-family="Inter, Segoe UI, Arial, sans-serif" font-size="14" letter-spacing="0.25em"><tspan x="1246.03" y="649.273"> &#10;</tspan></text>
</g>
</g>
<g id="c_alu">
<g id="alu_body">
<mask id="path-130-inside-13_23_245" fill="white">
<path d="M1342 539.898V602.493L1290 669V586.494L1299 571.648L1290 556.802V476L1342 539.898Z"/>
</mask>
<path d="M1342 539.898V602.493L1290 669V586.494L1299 571.648L1290 556.802V476L1342 539.898Z" fill="var(--compBg)" stroke="var(--compStroke)" stroke-width="4" mask="url(#path-130-inside-13_23_245)"/>
</g>
<text id="alu_label" fill="var(--dp)" style="white-space: pre" xml:space="preserve" font-family="Inter, Segoe UI, Arial, sans-serif" font-size="20" letter-spacing="0em"><tspan x="1294.71" y="603.273">ALU</tspan></text>
</g>
<g id="c_forwarding">
<rect id="forwarding_body" x="1222" y="875" width="147" height="84.9182" rx="40" fill="var(--compBg)" stroke="var(--ctrl)" stroke-width="2"/>
<text id="forwarding_label" fill="var(--ctrl)" style="white-space: pre" xml:space="preserve" font-family="Inter, Segoe UI, Arial, sans-serif" font-size="20" font-weight="bold" letter-spacing="0em"><tspan x="1240.46" y="917.273">Forwarding&#x2028;</tspan><tspan x="1275.87" y="941.273">Unit</tspan></text>
</g>
<g id="c_cause">
<rect id="cause_body" x="1124.5" y="346.5" width="72" height="30" fill="var(--chipBg)" stroke="var(--compStroke)"/>
<text id="cause_label" fill="var(--dp)" style="white-space: pre" xml:space="preserve" font-family="Inter, Segoe UI, Arial, sans-serif" font-size="20" letter-spacing="0em"><tspan x="1131.23" y="368.273">Cause</tspan></text>
</g>
<g id="c_epc">
<rect id="epc_body" x="1124.5" y="382.5" width="72" height="30" fill="var(--chipBg)" stroke="var(--compStroke)"/>
<text id="epc_label" fill="var(--dp)" style="white-space: pre" xml:space="preserve" font-family="Inter, Segoe UI, Arial, sans-serif" font-size="20" letter-spacing="0em"><tspan x="1141.4" y="404.273">EPC</tspan></text>
</g>
<g id="c_mux_wb_flush">
<g id="mux_wb_flush_body">
<mask id="path-138-inside-14_23_245" fill="white">
<path d="M1204 233.5C1204 223.835 1211.84 216 1221.5 216C1231.16 216 1239 223.835 1239 233.5V289.5C1239 299.165 1231.16 307 1221.5 307C1211.84 307 1204 299.165 1204 289.5V233.5Z"/>
</mask>
<path d="M1204 233.5C1204 223.835 1211.84 216 1221.5 216C1231.16 216 1239 223.835 1239 233.5V289.5C1239 299.165 1231.16 307 1221.5 307C1211.84 307 1204 299.165 1204 289.5V233.5Z" fill="var(--compBg)" stroke="var(--compStroke)" stroke-width="4" mask="url(#path-138-inside-14_23_245)"/>
</g>
<g id="mux_wb_flush_label">
<text fill="var(--dp)" style="white-space: pre" xml:space="preserve" font-family="Inter, Segoe UI, Arial, sans-serif" font-size="20" letter-spacing="0.25em"><tspan x="1214.75" y="249.273">0&#10;</tspan><tspan x="1216.35" y="290.273">1</tspan></text>
<text fill="var(--dp)" style="white-space: pre" xml:space="preserve" font-family="Inter, Segoe UI, Arial, sans-serif" font-size="14" letter-spacing="0.25em"><tspan x="1219.03" y="266.273"> &#10;</tspan></text>
</g>
</g>
<g id="c_mux_m_flush">
<g id="mux_m_flush_body">
<mask id="path-140-inside-15_23_245" fill="white">
<path d="M1260 328.5C1260 318.835 1267.84 311 1277.5 311C1287.16 311 1295 318.835 1295 328.5V384.5C1295 394.165 1287.16 402 1277.5 402C1267.84 402 1260 394.165 1260 384.5V328.5Z"/>
</mask>
<path d="M1260 328.5C1260 318.835 1267.84 311 1277.5 311C1287.16 311 1295 318.835 1295 328.5V384.5C1295 394.165 1287.16 402 1277.5 402C1267.84 402 1260 394.165 1260 384.5V328.5Z" fill="var(--compBg)" stroke="var(--compStroke)" stroke-width="4" mask="url(#path-140-inside-15_23_245)"/>
</g>
<g id="mux_m_flush_label">
<text fill="var(--dp)" style="white-space: pre" xml:space="preserve" font-family="Inter, Segoe UI, Arial, sans-serif" font-size="20" letter-spacing="0.25em"><tspan x="1270.75" y="344.273">0&#10;</tspan><tspan x="1272.35" y="385.273">1</tspan></text>
<text fill="var(--dp)" style="white-space: pre" xml:space="preserve" font-family="Inter, Segoe UI, Arial, sans-serif" font-size="14" letter-spacing="0.25em"><tspan x="1275.03" y="361.273"> &#10;</tspan></text>
</g>
</g>
<g id="c_exmem">
<g id="control_visual_2">
<g id="r_m_2">
<g id="r_m_body_2">
<mask id="path-142-inside-16_23_245" fill="white">
<path d="M1371 365.793H1415V415.715H1371V365.793Z"/>
<path d="M1371 365.793H1415V415.715H1371V365.793Z"/>
</mask>
<path d="M1371 365.793H1415V415.715H1371V365.793Z" fill="var(--compBg)"/>
<path d="M1371 365.793H1415V415.715H1371V365.793Z" fill="var(--compBg)"/>
<path d="M1371 365.793H1415V415.715H1371V365.793Z" stroke="var(--ctrl)" stroke-width="4" mask="url(#path-142-inside-16_23_245)"/>
<path d="M1371 365.793H1415V415.715H1371V365.793Z" stroke="var(--ctrl)" stroke-width="4" mask="url(#path-142-inside-16_23_245)"/>
</g>
<text id="r_m_label_2" fill="var(--ctrl)" style="white-space: pre" xml:space="preserve" font-family="Inter, Segoe UI, Arial, sans-serif" font-size="24" letter-spacing="-0.04em"><tspan x="1382.32" y="400.003">M</tspan></text>
</g>
<g id="r_wb_3">
<g id="r_wb_body_2">
<mask id="path-144-inside-17_23_245" fill="white">
<path d="M1371 318.866H1415V365.793H1371V318.866Z"/>
<path d="M1371 318.866H1415V365.793H1371V318.866Z"/>
</mask>
<path d="M1371 318.866H1415V365.793H1371V318.866Z" fill="var(--compBg)"/>
<path d="M1371 318.866H1415V365.793H1371V318.866Z" fill="var(--compBg)"/>
<path d="M1371 318.866H1415V365.793H1371V318.866Z" stroke="var(--ctrl)" stroke-width="4" mask="url(#path-144-inside-17_23_245)"/>
<path d="M1371 318.866H1415V365.793H1371V318.866Z" stroke="var(--ctrl)" stroke-width="4" mask="url(#path-144-inside-17_23_245)"/>
</g>
<text id="r_wb_label_2" fill="var(--ctrl)" style="white-space: pre" xml:space="preserve" font-family="Inter, Segoe UI, Arial, sans-serif" font-size="24" letter-spacing="-0.04em"><tspan x="1374.28" y="351.079">WB</tspan></text>
</g>
</g>
<text id="exmem_label" fill="var(--dp)" style="white-space: pre" xml:space="preserve" font-family="Inter, Segoe UI, Arial, sans-serif" font-size="24" letter-spacing="-0.04em"><tspan x="1347.23" y="301.227">EX/MEM</tspan></text>
<g id="exmem_body">
<mask id="path-147-inside-18_23_245" fill="white">
<path d="M1371 415.715H1415V874H1371V415.715Z"/>
<path d="M1371 415.715H1415V874H1371V415.715Z"/>
</mask>
<path d="M1371 415.715H1415V874H1371V415.715Z" fill="var(--compBg)"/>
<path d="M1371 415.715H1415V874H1371V415.715Z" fill="var(--compBg)"/>
<path d="M1371 415.715H1415V874H1371V415.715Z" stroke="var(--compStroke)" stroke-width="4" mask="url(#path-147-inside-18_23_245)"/>
<path d="M1371 415.715H1415V874H1371V415.715Z" stroke="var(--compStroke)" stroke-width="4" mask="url(#path-147-inside-18_23_245)"/>
</g>
</g>
<g id="c_dmem">
<rect id="dmem_body" x="1484" y="543" width="96" height="168" rx="1" fill="var(--compBg)" stroke="var(--compStroke)" stroke-width="2"/>
<text id="dmem_label" fill="var(--dp)" style="white-space: pre" xml:space="preserve" font-family="Inter, Segoe UI, Arial, sans-serif" font-size="20" letter-spacing="-0.04em"><tspan x="1510.86" y="625.273">Data&#x2028;</tspan><tspan x="1494.93" y="649.273">Memory</tspan></text>
</g>
<g id="c_memwb">
<g id="control_visual_3">
<g id="ex_label">
<g id="body">
<mask id="path-150-inside-19_23_245" fill="white">
<path d="M1608 361H1652V417H1608V361Z"/>
<path d="M1608 361H1652V417H1608V361Z"/>
</mask>
<path d="M1608 361H1652V417H1608V361Z" fill="var(--compBg)"/>
<path d="M1608 361H1652V417H1608V361Z" fill="var(--compBg)"/>
<path d="M1608 361H1652V417H1608V361Z" stroke="var(--ctrl)" stroke-width="4" mask="url(#path-150-inside-19_23_245)"/>
<path d="M1608 361H1652V417H1608V361Z" stroke="var(--ctrl)" stroke-width="4" mask="url(#path-150-inside-19_23_245)"/>
</g>
<text id="WB" fill="var(--ctrl)" style="white-space: pre" xml:space="preserve" font-family="Inter, Segoe UI, Arial, sans-serif" font-size="24" letter-spacing="-0.04em"><tspan x="1611.28" y="394.951">WB</tspan></text>
</g>
</g>
<text id="c_memwb_label" fill="var(--dp)" style="white-space: pre" xml:space="preserve" font-family="Inter, Segoe UI, Arial, sans-serif" font-size="24" letter-spacing="-0.04em"><tspan x="1576.4" y="349.227">MEM/WB</tspan></text>
<g id="memwb_body">
<mask id="path-153-inside-20_23_245" fill="white">
<path d="M1608 416.715H1652V875H1608V416.715Z"/>
<path d="M1608 416.715H1652V875H1608V416.715Z"/>
</mask>
<path d="M1608 416.715H1652V875H1608V416.715Z" fill="var(--compBg)"/>
<path d="M1608 416.715H1652V875H1608V416.715Z" fill="var(--compBg)"/>
<path d="M1608 416.715H1652V875H1608V416.715Z" stroke="var(--compStroke)" stroke-width="4" mask="url(#path-153-inside-20_23_245)"/>
<path d="M1608 416.715H1652V875H1608V416.715Z" stroke="var(--compStroke)" stroke-width="4" mask="url(#path-153-inside-20_23_245)"/>
</g>
</g>
<g id="c_mux_memtoreg">
<g id="mux_memtoreg_body">
<mask id="path-154-inside-21_23_245" fill="white">
<path d="M1718 559.5C1718 549.835 1725.84 542 1735.5 542C1745.16 542 1753 549.835 1753 559.5V615.5C1753 625.165 1745.16 633 1735.5 633C1725.84 633 1718 625.165 1718 615.5V559.5Z"/>
</mask>
<path d="M1718 559.5C1718 549.835 1725.84 542 1735.5 542C1745.16 542 1753 549.835 1753 559.5V615.5C1753 625.165 1745.16 633 1735.5 633C1725.84 633 1718 625.165 1718 615.5V559.5Z" fill="var(--compBg)" stroke="var(--compStroke)" stroke-width="4" mask="url(#path-154-inside-21_23_245)"/>
</g>
<g id="mux_memtoreg_label">
<text fill="var(--dp)" style="white-space: pre" xml:space="preserve" font-family="Inter, Segoe UI, Arial, sans-serif" font-size="20" letter-spacing="0.25em"><tspan x="1730.35" y="575.273">1&#10;</tspan><tspan x="1728.75" y="616.273">0</tspan></text>
<text fill="var(--dp)" style="white-space: pre" xml:space="preserve" font-family="Inter, Segoe UI, Arial, sans-serif" font-size="14" letter-spacing="0.25em"><tspan x="1733.03" y="592.273"> &#10;</tspan></text>
</g>
</g>
<g id="c_ifid">
<rect id="ifid_body" x="497" y="379" width="38" height="494" fill="var(--compBg)" stroke="var(--compStroke)" stroke-width="2"/>
<text id="ifid_label" fill="var(--dp)" style="white-space: pre" xml:space="preserve" font-family="Inter, Segoe UI, Arial, sans-serif" font-size="24" letter-spacing="-0.04em"><tspan x="492.123" y="350.227">IF/ID</tspan></text>
</g>
</g>
<g id="labels">
<text id="4" fill="var(--dp)" style="white-space: pre" xml:space="preserve" font-family="Inter, Segoe UI, Arial, sans-serif" font-size="20" letter-spacing="0.11em"><tspan x="348.084" y="473.273">4</tspan></text>
<text id="0x80000180" fill="var(--dp)" style="white-space: pre" xml:space="preserve" font-family="Inter, Segoe UI, Arial, sans-serif" font-size="22" letter-spacing="0em"><tspan x="14.3291" y="635.5">0x80000180</tspan></text>
<text id="PCSrc" fill="var(--ctrl)" style="white-space: pre" xml:space="preserve" font-family="Inter, Segoe UI, Arial, sans-serif" font-size="20" letter-spacing="-0.04em"><tspan x="209.459" y="531.273">PCSrc</tspan></text>
<text id="RegDst" fill="var(--ctrl)" style="white-space: pre" xml:space="preserve" font-family="Inter, Segoe UI, Arial, sans-serif" font-size="18" letter-spacing="-0.04em"><tspan x="1120.43" y="774.545">RegDst</tspan></text>
<text id="FwdB" fill="var(--ctrl)" style="white-space: pre" xml:space="preserve" font-family="Inter, Segoe UI, Arial, sans-serif" font-size="18" letter-spacing="-0.04em"><tspan x="1139.21" y="737.545">FwdB</tspan></text>
<text id="ID.Flush" fill="var(--ctrl)" style="white-space: pre" xml:space="preserve" font-family="Inter, Segoe UI, Arial, sans-serif" font-size="20" letter-spacing="-0.04em"><tspan x="866.486" y="118.273">ID.Flush</tspan></text>
<text id="IF.Flush" fill="var(--ctrl)" style="white-space: pre" xml:space="preserve" font-family="Inter, Segoe UI, Arial, sans-serif" font-size="20" letter-spacing="-0.04em"><tspan x="206.187" y="132.273">IF.Flush</tspan></text>
<text id="EX.Flush" fill="var(--ctrl)" style="white-space: pre" xml:space="preserve" font-family="Inter, Segoe UI, Arial, sans-serif" font-size="20" letter-spacing="-0.04em"><tspan x="1235.47" y="60.2727">EX.Flush</tspan></text>
<text id="FwdA" fill="var(--ctrl)" style="white-space: pre" xml:space="preserve" font-family="Inter, Segoe UI, Arial, sans-serif" font-size="18" letter-spacing="-0.04em"><tspan x="1137.42" y="584.273">FwdA</tspan></text>
<text id="ALUSrc" fill="var(--ctrl)" style="white-space: pre" xml:space="preserve" font-family="Inter, Segoe UI, Arial, sans-serif" font-size="20" letter-spacing="-0.04em"><tspan x="1217.19" y="570.273">ALUSrc</tspan></text>
<text id="MemWrite" fill="var(--ctrl)" style="white-space: pre" xml:space="preserve" font-family="Inter, Segoe UI, Arial, sans-serif" font-size="20" letter-spacing="-0.04em"><tspan x="1483.26" y="512.273">MemWrite</tspan></text>
<text id="MemToReg" fill="var(--ctrl)" style="white-space: pre" xml:space="preserve" font-family="Inter, Segoe UI, Arial, sans-serif" font-size="20" letter-spacing="-0.04em"><tspan x="1693.01" y="514.273">MemToReg</tspan></text>
<text id="MemRead" fill="var(--ctrl)" style="white-space: pre" xml:space="preserve" font-family="Inter, Segoe UI, Arial, sans-serif" font-size="20" letter-spacing="-0.04em"><tspan x="1484.49" y="753.273">MemRead</tspan></text>
<text id="0" fill="var(--ctrl)" style="white-space: pre" xml:space="preserve" font-family="Inter, Segoe UI, Arial, sans-serif" font-size="20" letter-spacing="-0.04em"><tspan x="860.25" y="385.273">0</tspan></text>
<text id="0_2" fill="var(--ctrl)" style="white-space: pre" xml:space="preserve" font-family="Inter, Segoe UI, Arial, sans-serif" font-size="20" letter-spacing="-0.04em"><tspan x="1164.25" y="292.273">0</tspan></text>
<text id="0_3" fill="var(--ctrl)" style="white-space: pre" xml:space="preserve" font-family="Inter, Segoe UI, Arial, sans-serif" font-size="20" letter-spacing="-0.04em"><tspan x="1219.25" y="381.273">0</tspan></text>
<text id="PC Write" transform="matrix(0 -1 1 0 274 284)" fill="var(--ctrl)" style="white-space: pre" xml:space="preserve" font-family="Inter, Segoe UI, Arial, sans-serif" font-size="20" letter-spacing="-0.04em"><tspan x="0.22578" y="19.2727">PC Write</tspan></text>
<text id="IF/ID Write" transform="matrix(0 -1 1 0 487 284)" fill="var(--ctrl)" style="white-space: pre" xml:space="preserve" font-family="Inter, Segoe UI, Arial, sans-serif" font-size="20" letter-spacing="-0.04em"><tspan x="0.134766" y="19.2727">IF/ID Write</tspan></text>
<text id="EX/MEM.RegWrite" transform="matrix(0 1 -1 0 1464 351)" fill="var(--ctrl)" style="white-space: pre" xml:space="preserve" font-family="Inter, Segoe UI, Arial, sans-serif" font-size="20" letter-spacing="-0.04em"><tspan x="0.228905" y="19.2727">EX/MEM.RegWrite</tspan></text>
<text id="MEM/WB.RegWrite" transform="matrix(0 1 -1 0 1713 674)" fill="var(--ctrl)" style="white-space: pre" xml:space="preserve" font-family="Inter, Segoe UI, Arial, sans-serif" font-size="20" letter-spacing="-0.04em"><tspan x="0.125389" y="19.2727">MEM/WB.RegWrite</tspan></text>
<text id="IF/ID.Rs" fill="var(--dp)" style="white-space: pre" xml:space="preserve" font-family="Inter, Segoe UI, Arial, sans-serif" font-size="18" letter-spacing="-0.04em"><tspan x="817.273" y="781.545">IF/ID.Rs</tspan></text>
<text id="IF/ID.Rt" fill="var(--dp)" style="white-space: pre" xml:space="preserve" font-family="Inter, Segoe UI, Arial, sans-serif" font-size="18" letter-spacing="-0.04em"><tspan x="817.206" y="828.545">IF/ID.Rt</tspan></text>
<text id="IF/ID.Rd" fill="var(--dp)" style="white-space: pre" xml:space="preserve" font-family="Inter, Segoe UI, Arial, sans-serif" font-size="18" letter-spacing="-0.04em"><tspan x="817.438" y="856.545">IF/ID.Rd</tspan></text>
<text id="ID/EX.Rt" fill="var(--dp)" style="white-space: pre" xml:space="preserve" font-family="Inter, Segoe UI, Arial, sans-serif" font-size="18" letter-spacing="-0.04em"><tspan x="817.164" y="880.545">ID/EX.Rt</tspan></text>
<text id="IF/ID.Rt_2" fill="var(--dp)" style="white-space: pre" xml:space="preserve" font-family="Inter, Segoe UI, Arial, sans-serif" font-size="18" letter-spacing="-0.04em"><tspan x="817.206" y="804.545">IF/ID.Rt</tspan></text>
</g>
</g>
</g>
<defs>
<clipPath id="clip0_23_245">
<rect width="1779" height="992" fill="var(--compBg)" transform="translate(14 41)"/>
</clipPath>
</defs>
</svg>
